<svg version="1.1" xmlns="http://www.w3.org/2000/svg" xmlns:xlink="http://www.w3.org/1999/xlink" width="22.58306" height="45.37538" viewBox="0,0,22.58306,45.37538"><g transform="translate(-228.70847,-145.91615)"><g data-paper-data="{&quot;isPaintingLayer&quot;:true}" fill-rule="nonzero" stroke-linecap="butt" stroke-linejoin="miter" stroke-miterlimit="10" stroke-dasharray="" stroke-dashoffset="0" style="mix-blend-mode: normal"><text transform="translate(232.70804,167.47018) scale(0.24808,0.5)" font-size="40" xml:space="preserve" fill="#000000" fill-rule="nonzero" stroke="none" stroke-width="1" stroke-linecap="butt" stroke-linejoin="miter" stroke-miterlimit="10" stroke-dasharray="" stroke-dashoffset="0" font-family="Sans Serif" font-weight="normal" text-anchor="start" style="mix-blend-mode: normal"><tspan x="0" dy="0">P 3</tspan></text><path d="M229.70847,187.14113c0,-3.55936 0,-9.18063 0,-11.67503c0,-2.71113 0.39418,-5.75762 3.10531,-5.75762c2.21264,0 8.75933,0 13.18149,0c2.12314,0 4.29626,0.43326 4.29626,2.5564c0,2.25887 0,9.92389 0,14.49964c0,1.96669 -0.82311,3.52702 -2.78981,3.52702c-4.44367,0 -12.87106,0 -15.25286,0c-1.23149,0 -2.54039,-3.15041 -2.54039,-3.15041z" fill="#f2ff6d" stroke="#000000" stroke-width="2"/><text transform="translate(233.12756,167.36616) scale(0.29289,0.5)" font-size="40" xml:space="preserve" fill="#f2ff6d" fill-rule="nonzero" stroke="none" stroke-width="1" stroke-linecap="butt" stroke-linejoin="miter" stroke-miterlimit="10" stroke-dasharray="" stroke-dashoffset="0" font-family="Sans Serif" font-weight="normal" text-anchor="start" style="mix-blend-mode: normal"><tspan x="0" dy="0">P3</tspan></text></g></g></svg>