<svg version="1.1" xmlns="http://www.w3.org/2000/svg" xmlns:xlink="http://www.w3.org/1999/xlink" width="38.61566" height="48.45171" viewBox="0,0,38.61566,48.45171"><g transform="translate(-219.72278,-142.83982)"><g data-paper-data="{&quot;isPaintingLayer&quot;:true}" fill-rule="nonzero" stroke-linecap="butt" stroke-linejoin="miter" stroke-miterlimit="10" stroke-dasharray="" stroke-dashoffset="0" style="mix-blend-mode: normal"><text transform="translate(219.84682,165.70681) scale(0.24808,0.5)" font-size="40" xml:space="preserve" fill="#000000" fill-rule="nonzero" stroke="none" stroke-width="1" stroke-linecap="butt" stroke-linejoin="miter" stroke-miterlimit="10" stroke-dasharray="" stroke-dashoffset="0" font-family="Sans Serif" font-weight="normal" text-anchor="start" style="mix-blend-mode: normal"><tspan x="0" dy="0">TAGGER</tspan></text><text transform="translate(220.52243,164.17524) scale(0.24808,0.5)" font-size="40" xml:space="preserve" fill="#ff0000" fill-rule="nonzero" stroke="none" stroke-width="1" stroke-linecap="butt" stroke-linejoin="miter" stroke-miterlimit="10" stroke-dasharray="" stroke-dashoffset="0" font-family="Sans Serif" font-weight="normal" text-anchor="start" style="mix-blend-mode: normal"><tspan x="0" dy="0">TAGGER</tspan></text><path d="M229.70847,187.14112c0,-3.55936 0,-9.18063 0,-11.67503c0,-2.71113 0.39418,-5.75762 3.10531,-5.75762c2.21264,0 8.75933,0 13.18149,0c2.12314,0 4.29626,0.43326 4.29626,2.5564c0,2.25887 0,9.92389 0,14.49964c0,1.96669 -0.82311,3.52702 -2.78981,3.52702c-4.44367,0 -12.87106,0 -15.25286,0c-1.23149,0 -2.54039,-3.15041 -2.54039,-3.15041z" fill="#ff0000" stroke="#000000" stroke-width="2"/></g></g></svg>